<svg width="20" height="30" viewBox="0 0 20 30" fill="none" xmlns="http://www.w3.org/2000/svg">
<g clip-path="url(#clip0_115_2528)">
<path d="M11.9887 15L17.998 8.99063L19.2373 7.75137C19.4201 7.56855 19.4201 7.27148 19.2373 7.08867L17.9113 5.7627C17.7285 5.57988 17.4314 5.57988 17.2486 5.7627L10 13.0113L2.75137 5.76211C2.56855 5.5793 2.27148 5.5793 2.08867 5.76211L0.762109 7.08809C0.579297 7.2709 0.579297 7.56797 0.762109 7.75078L8.01133 15L0.762109 22.2486C0.579297 22.4314 0.579297 22.7285 0.762109 22.9113L2.08809 24.2373C2.2709 24.4201 2.56797 24.4201 2.75078 24.2373L10 16.9887L16.0094 22.998L17.2486 24.2373C17.4314 24.4201 17.7285 24.4201 17.9113 24.2373L19.2373 22.9113C19.4201 22.7285 19.4201 22.4314 19.2373 22.2486L11.9887 15Z" fill="#FF0000"/>
</g>
<defs>
<clipPath id="clip0_115_2528">
<rect width="18.75" height="30" fill="white" transform="translate(0.625)"/>
</clipPath>
</defs>
</svg>
